<?xml version="1.0" encoding="utf-8"?>
<!-- Generator: Adobe Illustrator 18.1.0, SVG Export Plug-In . SVG Version: 6.00 Build 0)  -->
<svg version="1.1" id="Layer_1" xmlns="http://www.w3.org/2000/svg" xmlns:xlink="http://www.w3.org/1999/xlink" x="0px" y="0px"
	 viewBox="0 0 150 150" enable-background="new 0 0 150 150" xml:space="preserve">
<g>
	<path fill="#55924E" d="M144.9,78.8l-0.3-0.4c0.1-1.5,0.2-3.1,0.2-4.6c0-17.9-6.7-34.2-17.8-46.6c0-0.1,0-0.1,0.1-0.2l-0.3-0.1
		c-7.9-8.7-17.9-15.4-29.2-19.4l-0.9-0.5c0,0,0,0.1-0.1,0.1c-6.9-2.3-14.3-3.5-21.9-3.5c-2.2,0-4.3,0.1-6.4,0.3l-0.7-0.4
		c-0.1,0.2-0.2,0.3-0.3,0.5C32.1,7.8,4.6,37.6,4.6,73.8c0,5.2,0.6,10.4,1.7,15.3l-0.4,0.6c0.2,0.1,0.4,0.2,0.6,0.3
		c4.2,17.8,15.3,33.1,30.3,42.7c0.1,0.1,0.1,0.2,0.2,0.3l0.2-0.1c10.9,6.9,23.7,10.9,37.5,10.9c22.8,0,43.2-11,56-28
		c0,0,0.1,0,0.1-0.1l0-0.1c7.8-10.4,12.8-23,13.8-36.8C144.7,78.9,144.8,78.9,144.9,78.8z M136.9,46.9c-5,3.4-10.4,6.4-16,9
		c0.9-9,2.6-17.7,5.3-26.1C130.5,34.9,134.1,40.7,136.9,46.9z M97.7,10.1c5.4,2,10.6,4.6,15.2,7.9c-6.8,2.5-13.9,4.5-21.1,5.9
		C93.6,19.1,95.5,14.5,97.7,10.1z M68.7,6.3c2-0.2,3.9-0.3,5.9-0.3c7.3,0,14.3,1.2,20.8,3.3c-2.4,4.8-4.5,9.9-6.3,15
		c-1.4,0.2-2.8,0.5-4.2,0.7c-8.3,1.2-16.6,1.6-24.8,1.2C62.5,19.3,65.4,12.6,68.7,6.3z M32.7,20.7c9.4-7.4,20.8-12.5,33.3-14.1
		c-3.2,6.2-5.9,12.7-8,19.5c-8.8-0.5-17.5-2-25.7-4.3C32.4,21.4,32.5,21.1,32.7,20.7z M28.9,23.8c-4.3,11.7-6.9,24.1-7.7,37
		c-4.1-1.5-8-3.3-11.8-5.2C12.8,43.3,19.7,32.3,28.9,23.8z M6.9,73.8C6.9,68.3,7.6,63,8.8,58c4,2,8.1,3.8,12.3,5.3
		c-0.1,2.1-0.1,4.3-0.1,6.4c0,8.6,0.8,17.1,2.4,25.4c-5.1-1.9-10.1-4.1-14.8-6.6C7.5,83.7,6.9,78.8,6.9,73.8z M9.3,91.5
		c4.7,2.4,9.5,4.5,14.6,6.3c1.9,8.9,4.6,17.5,8.3,25.5c-1.8-0.6-3.7-1.1-5.4-1.8C18.5,113.3,12.4,103,9.3,91.5z M30.8,125.4
		c0.9,0.3,1.7,0.5,2.6,0.8c0.3,0.7,0.7,1.4,1.1,2.1C33.2,127.4,32,126.4,30.8,125.4z M74.7,141.5c-13.3,0-25.6-3.8-36.1-10.4
		c-0.8-1.4-1.5-2.7-2.2-4.1c10.4,2.7,21.3,4,32.3,4c2.2,3.7,4.5,7.2,7.1,10.6C75.4,141.5,75,141.5,74.7,141.5z M78.6,141.4
		c-2.6-3.3-5-6.9-7.2-10.5c5.4-0.1,10.9-0.6,16.3-1.3c3.1-0.4,6.1-1,9.1-1.6c1.5,2.8,3,5.5,4.7,8.1
		C94.4,139.1,86.7,140.9,78.6,141.4z M103.7,135c-1.6-2.4-3.1-5-4.4-7.6c9.2-2.1,18-5.1,26.4-9C119.5,125.3,112.1,131,103.7,135z
		 M98.1,125.3c-1.6-3.2-3.1-6.5-4.4-9.9c-0.6,0.5-1.3,0.9-2,1.4c1.2,3.1,2.6,6.1,4,9c-2.7,0.6-5.5,1.1-8.3,1.5
		c-5.8,0.8-11.6,1.3-17.3,1.3c-1-1.7-1.9-3.4-2.7-5.2c-0.9,0-1.8-0.1-2.7-0.2c0.9,1.8,1.8,3.7,2.8,5.4c-11.1-0.1-22-1.6-32.4-4.4
		c-3.8-8.1-6.7-16.6-8.7-25.6c2.1,0.7,4.2,1.3,6.3,1.8c-0.4-0.9-0.8-1.8-1.2-2.7c-1.9-0.5-3.8-1.1-5.7-1.7
		c-1.7-8.5-2.6-17.3-2.6-26.3c0-1.9,0-3.7,0.1-5.6c2.8,1,5.7,1.8,8.6,2.6c0.3-0.7,0.6-1.5,1-2.2c-3.2-0.8-6.4-1.8-9.5-2.8
		c0.8-13.1,3.4-25.8,7.9-37.7c8.3,2.3,17,3.8,25.9,4.4c-1.6,5.4-2.8,11-3.7,16.7c0.5-0.2,1-0.5,1.6-0.7c0.3-0.1,0.6-0.2,0.9-0.2
		c0.9-5.4,2.1-10.6,3.6-15.8c8.5,0.4,17.2,0,25.8-1.2c1-0.1,2-0.3,3-0.5c-1.8,5.8-3.2,11.7-4.2,17.8c0.8,0.3,1.5,0.6,2.2,0.9
		c1.1-6.6,2.6-13,4.6-19.2c8.3-1.5,16.5-3.8,24.2-6.8c3.3,2.5,6.3,5.2,9.1,8.2c-3.1,9.4-5,19.2-5.9,29.3c-4.5,2-9.1,3.7-13.8,5.2
		c0.4,0.7,0.8,1.4,1.1,2.1c4.3-1.3,8.4-2.9,12.5-4.6c-0.2,3.1-0.3,6.3-0.3,9.4c0,7.4,0.6,14.7,1.7,21.8c-3.7,1.7-7.6,3.1-11.5,4.4
		c-0.3,0.9-0.7,1.9-1,2.8c4.4-1.4,8.7-3,12.9-4.9c1.4,7.6,3.4,15.1,6.1,22.2C117.3,119.8,107.9,123.1,98.1,125.3z M129.1,114.1
		c-0.3,0.2-0.6,0.3-0.9,0.4c-2.7-7.2-4.7-14.6-6-22.2c7-3.2,13.7-7.1,19.8-11.5C140.8,93.2,136.1,104.6,129.1,114.1z M142.3,77.8
		c-6.3,4.7-13.2,8.8-20.5,12.2c-1.1-6.8-1.6-13.7-1.6-20.8c0-3.5,0.1-7,0.4-10.5c6-2.7,11.7-5.9,17.1-9.5c3,7.7,4.7,16,4.7,24.7
		C142.4,75.1,142.4,76.4,142.3,77.8z"/>
	<path fill="#EA6847" d="M83.7,44.5c-1.8-0.7-3.8,0.2-4.4,2c-0.7,1.8,0.2,3.8,2,4.4c13.2,4.9,22,17.7,22,31.8
		c0,18.7-15.2,33.9-33.9,33.9s-33.9-15.2-33.9-33.9c0-14.1,8.8-26.8,22-31.8c1.8-0.7,2.7-2.6,2-4.4c-0.7-1.8-2.6-2.7-4.4-2
		c-15.8,5.9-26.5,21.3-26.5,38.2c0,22.5,18.3,40.8,40.8,40.8c22.5,0,40.8-18.3,40.8-40.8C110.2,65.8,99.5,50.4,83.7,44.5z M69.4,76
		c4.2,0,7.7-3.4,7.7-7.7V41.8c0-4.2-3.4-7.7-7.7-7.7c-4.2,0-7.7,3.4-7.7,7.7v26.5C61.7,72.6,65.2,76,69.4,76z"/>
</g>
</svg>
