<?xml version="1.0" encoding="iso-8859-1"?>
<!-- Generator: Adobe Illustrator 13.0.0, SVG Export Plug-In . SVG Version: 6.00 Build 14948)  -->
<!DOCTYPE svg PUBLIC "-//W3C//DTD SVG 1.1//EN" "http://www.w3.org/Graphics/SVG/1.1/DTD/svg11.dtd">
<svg xmlns="http://www.w3.org/2000/svg" xmlns:xlink="http://www.w3.org/1999/xlink" version="1.1" id="Layer_1" x="0px" y="0px" width="100px" height="100px" viewBox="0 0 100 100" enable-background="new 0 0 100 100" xml:space="preserve">












<g>
	<path fill="#599D84" d="M95.143,50.124c0,25.595-20.758,46.338-46.354,46.338c-25.595,0-46.339-20.743-46.339-46.338   c0-25.609,20.744-46.354,46.339-46.354C74.385,3.77,95.143,24.514,95.143,50.124z"/>
	<g>
		<path fill="#A5D1C5" d="M33.292,70.709c-1.856-2.37-3.687-5.154-5.214-8.321c-3.153,0.251-6.445,0.276-9.849,0.013    c0.955,2.548,2.291,4.858,3.951,6.854C26.09,70.274,29.815,70.722,33.292,70.709z M36.86,30.465    c-1.132,0.185-2.258,0.409-3.383,0.757c-1.212,0.368-2.344,0.856-3.443,1.396c-1.271,3.601-1.975,7.01-2.245,10.217    c6.162-1.239,11.764-3.081,16.498-5.01C41.495,34.35,38.664,31.874,36.86,30.465z M53.067,33.75    c-3.344-2.067-7.175-3.297-11.178-3.528c1.718,1.613,3.7,3.699,5.628,6.221C49.599,35.515,51.455,34.599,53.067,33.75z     M17.196,58.925l0.02-0.158c3.226,0.329,6.359,0.362,9.388,0.171c-1.336-3.567-2.225-7.531-2.396-11.875    c-2.173,0.315-4.398,0.553-6.675,0.698C16.557,51.309,16.386,55.127,17.196,58.925z M25.464,35.527    c-2.863,2.331-5.095,5.274-6.603,8.573c1.817-0.146,3.614-0.355,5.359-0.632C24.365,40.939,24.773,38.286,25.464,35.527z     M56.136,24.442c-7.906-4.167-16.965-5.01-25.504-2.371c-8.532,2.633-15.53,8.446-19.697,16.346    c-4.174,7.907-5.01,16.965-2.37,25.498c2.633,8.532,8.439,15.536,16.346,19.697c7.9,4.174,16.953,5.016,25.498,2.376    c3.344-1.04,6.45-2.58,9.243-4.521c-2.089-0.527-4.057-1.35-5.854-2.437c-1.559,0.816-3.191,1.515-4.917,2.04    c-7.221,2.245-14.878,1.528-21.572-2.001c-6.696-3.528-11.607-9.453-13.832-16.669c-2.238-7.229-1.527-14.891,2.001-21.579    c3.535-6.688,9.454-11.613,16.675-13.839c7.222-2.238,14.892-1.521,21.581,2.015c4.49,2.363,8.155,5.833,10.77,10.033    c0.126,0,0.256-0.014,0.383-0.014c2.047,0,4.016,0.302,5.892,0.836C67.717,33.283,62.653,27.891,56.136,24.442z M47.571,76.798    c0.737-0.23,1.455-0.499,2.152-0.789c0.014-0.034,0.026-0.061,0.041-0.093c-1.186-1.164-2.219-2.476-3.107-3.884    c-1.949,0.625-4.003,1.152-6.163,1.526c2.179,2.062,3.963,3.358,4.674,3.845C45.971,77.246,46.768,77.041,47.571,76.798z     M59.546,39.714c-0.987-1.316-2.086-2.54-3.306-3.613c-1.829,1.014-4.055,2.159-6.615,3.324c0.81,1.238,1.559,2.581,2.278,3.977    C54.148,41.696,56.729,40.433,59.546,39.714z M36.175,74.086c-2.824,0.203-5.787,0.159-8.888-0.237    c3.746,2.482,8.176,3.904,12.771,3.997C38.914,76.858,37.584,75.595,36.175,74.086z M43.325,60.576    c0-0.434,0.039-0.861,0.065-1.283c-3.595,1.165-7.505,2.134-11.711,2.706c1.731,3.345,3.818,6.182,5.852,8.48    c2.66-0.277,5.148-0.831,7.492-1.535C43.931,66.37,43.325,63.54,43.325,60.576z M30.119,58.596    c5.055-0.626,9.723-1.85,13.89-3.331c0.928-3.634,2.765-6.9,5.28-9.533c-0.856-1.771-1.804-3.43-2.818-4.925    c-5.28,2.207-11.672,4.346-18.789,5.682C27.775,50.979,28.71,55.026,30.119,58.596z"/>
		<path fill="#A5D1C5" d="M87.327,75.692l-6.767-7.09c1.243-2.416,1.961-5.142,1.961-8.026c0-9.723-7.913-17.629-17.636-17.629    c-9.724,0-17.631,7.906-17.631,17.629c0,9.718,7.907,17.624,17.631,17.624c3.061,0,5.938-0.783,8.453-2.159l7.425,7.65    c0,0,1.877-1.718,3.812-3.818C86.524,77.753,87.327,75.692,87.327,75.692z M64.886,71.92c-6.256,0-11.344-5.095-11.344-11.344    c0-6.26,5.088-11.349,11.344-11.349c6.261,0,11.35,5.089,11.35,11.349C76.235,66.825,71.146,71.92,64.886,71.92z"/>
	</g>
</g>
</svg>
